<?xml version="1.0" encoding="utf-8"?>
<!-- Generator: Adobe Illustrator 18.1.1, SVG Export Plug-In . SVG Version: 6.00 Build 0)  -->
<svg version="1.1" xmlns="http://www.w3.org/2000/svg" xmlns:xlink="http://www.w3.org/1999/xlink" x="0px" y="0px"
	 viewBox="0 0 754 255.1" enable-background="new 0 0 754 255.1" xml:space="preserve">
<g id="Font_-_Pruspic_Openface">
</g>
<g id="Beetle_speech_bubble">
	<g>
		<path fill-rule="evenodd" clip-rule="evenodd" fill="#138385" d="M102.5,211.7l37.9,43.4l40.2-43.4h535.8
			c22.4,0,38.5-17.1,38.5-40.9V42.5c0-23.8-16.1-40.9-38.5-40.9H38.9C16.5,1.6,0.4,18.7,0.4,42.5v128.3c0,23.8,16.1,40.9,38.5,40.9
			H102.5z"/>
	</g>
</g>
<g id="white_filled" display="none">
	<g id="Outline">
		<path display="inline" fill-rule="evenodd" clip-rule="evenodd" fill="#FFFFFF" d="M141.3,142.5c-3.1,3.3-7,5.1-11.6,5.3H84V63.5
			h40.2c4.7,0.3,8.6,2,11.5,5.1c3,3.2,4.4,6.9,4.4,11c0,4.4-1.4,8.1-4.4,11.2c-3,3-6.4,4.7-10.4,5H111c-2.9-3.1-6.1-4.6-9.9-4.6
			c-3.7,0-7,1.4-9.8,4.3c-2.1,2.1-3.4,4.6-3.9,7.4v2.1c0,3.8,1.3,7,4.1,9.8c2.7,2.7,6,4.1,9.8,4.1c3.8,0,7.1-1.9,9.8-5.8h17.4
			c5.3,0.3,9.6,2.1,12.7,5.5c3.1,3.4,4.6,7.4,4.6,11.8C145.9,135.2,144.4,139.2,141.3,142.5z M125,53.1c8,0,14.7,2.6,20,7.8
			c5.3,5.2,8,11.5,8.2,18.8c-0.1,7.2-2,12.7-5.6,16.5c-3.7,3.8-6.6,6.3-8.9,7.4h-0.2c4.3,1.3,8.7,4.3,13.1,8.8
			c4.5,4.5,6.8,10.5,6.9,18.1c-0.1,7.8-3,14.4-8.5,19.7c-5.5,5.3-11.9,8-19.1,8H79.5c-0.1,0.7-0.6,1.5-1.4,2.3
			c-0.9,0.8-2.1,1.2-3.6,1.2s-2.9-0.5-3.8-1.6c-1-1.1-1.5-2.3-1.5-3.8c0-1.4,0.4-2.6,1.2-3.4c0.8-0.8,1.6-1.4,2.2-1.6v-91
			c-0.6-0.2-1.4-0.8-2.2-1.6c-0.8-0.8-1.2-2-1.2-3.6c0-1.4,0.5-2.7,1.5-3.8c1-1.1,2.3-1.6,3.8-1.6s2.8,0.4,3.6,1.3
			c0.8,0.9,1.3,1.6,1.4,2.2H125z M147,113.5c-4.6-4.8-10.4-7.2-17.5-7.2h-22.8c-0.3,0.8-0.8,1.6-1.6,2.3c-0.8,0.8-1.9,1.1-3.2,1.1
			c-1.4,0-2.7-0.5-3.7-1.4c-1.1-0.9-1.6-2-1.6-3.2c0-0.6,0.1-1.2,0.4-1.8c0.2-0.5,0.8-1.1,1.6-1.8c0.8-0.7,1.9-1,3.3-1
			c1.3,0,2.3,0.3,3.1,0.8c0.8,0.5,1.3,1,1.6,1.5h19.5c5.9,0,11.1-2.3,15.5-6.8c4.4-4.5,6.6-10,6.6-16.3c0-6.2-2.3-11.5-6.7-16.2
			c-4.5-4.6-10.2-7-17-7H78.9c-0.1,0.7-0.6,1.4-1.3,2.2c-0.7,0.7-1.2,1.1-1.6,1.3v91.5c0.4,0.1,0.9,0.5,1.6,1.2
			c0.7,0.7,1.1,1.4,1.3,2h51.8c6.1,0,11.5-2.4,16.2-7.1c4.7-4.8,7-10.5,7-17.1C153.9,124,151.6,118.4,147,113.5z M64.6,64.9v81.7
			c-3.1,2.9-4.6,6.3-4.6,10.2s1.3,7.2,4,10c2.7,2.8,6,4.2,9.9,4.2c3.7,0,7-1.9,9.8-5.8h47.1c9,0,17-3.3,24.1-10
			c7.1-6.7,10.7-14.9,10.7-24.7c-0.4-7.9-2.3-14.1-5.9-18.5c-3.6-4.5-7.5-7.6-11.6-9.2c2.6-1.5,5.1-4.1,7.6-7.5
			c2.4-3.4,3.8-8.5,4.2-15.2c0-9.3-3.4-17.2-10.2-23.8c-6.8-6.6-15.6-9.9-26.3-9.9H83.8c-2.9-3.8-6.2-5.8-9.8-5.8
			c-3.9,0-7.2,1.4-9.9,4.3c-2.7,2.9-4,6.1-4,9.9C60,58.6,61.5,62,64.6,64.9z"/>
		<path display="inline" fill-rule="evenodd" clip-rule="evenodd" fill="#FFFFFF" d="M182,53.1h69.9c0.2-0.8,0.8-1.5,1.6-2.3
			c0.8-0.8,1.9-1.1,3.4-1.1c1.4,0,2.7,0.5,3.7,1.6c1.1,1,1.6,2.2,1.6,3.6c0,1.5-0.6,2.8-1.6,3.7c-1,1-2.3,1.5-3.8,1.5
			c-1.4,0-2.6-0.4-3.4-1c-0.8-0.7-1.4-1.5-1.6-2.4h-66.3v46.2h53.6c0.2-0.5,0.8-1,1.6-1.5c0.9-0.5,2-0.8,3.4-0.8
			c1.4,0,2.7,0.5,3.8,1.4s1.6,2,1.6,3.2c0,1.3-0.6,2.5-1.6,3.3c-1.1,0.9-2.4,1.3-3.8,1.3c-1.5,0-2.6-0.3-3.4-1
			c-0.9-0.7-1.4-1.5-1.6-2.4h-53.6v48.5h66.3c0.2-0.5,0.8-1,1.6-1.5c0.9-0.6,2-0.8,3.4-0.8c1.4,0,2.7,0.5,3.8,1.4
			c1.1,0.9,1.6,2,1.6,3.2c0,1.3-0.5,2.5-1.6,3.3c-1.1,0.9-2.3,1.3-3.7,1.3c-1.4,0-2.6-0.3-3.4-1c-0.9-0.7-1.4-1.5-1.6-2.5H182V53.1z
			 M247.1,165.2c2.9,3.8,6.3,5.8,10.3,5.8c3.7,0,7-1.3,9.8-4c2.9-2.7,4.3-5.9,4.3-9.9c0-3.7-1.4-6.9-4.3-9.7
			c-2.8-2.8-6.1-4.2-9.8-4.2c-4,0-7.3,1.6-10.1,4.6h-53.8v-34.6h40.8c2.9,3.9,6.4,5.8,10.4,5.8c3.7,0,7-1.3,9.9-4
			c2.9-2.7,4.3-5.9,4.3-9.9c0-3.6-1.4-6.9-4.3-9.7c-2.8-2.8-6.1-4.2-9.9-4.2c-4,0-7.4,1.5-10.2,4.6h-41V63.5h53.6
			c2.9,3.9,6.3,5.8,10.3,5.8c3.7,0,7-1.4,9.8-4.2c2.9-2.8,4.3-6.2,4.3-10.3c0-3.8-1.4-7.2-4.3-10.1c-2.8-2.9-6.1-4.4-9.8-4.4
			c-4,0-7.3,1.9-10.1,5.8H174v119H247.1z"/>
		<path display="inline" fill-rule="evenodd" clip-rule="evenodd" fill="#FFFFFF" d="M288.6,53.1h69.9c0.2-0.8,0.8-1.5,1.6-2.3
			c0.8-0.8,1.9-1.1,3.4-1.1s2.7,0.5,3.7,1.6s1.6,2.2,1.6,3.6c0,1.5-0.6,2.8-1.6,3.7c-1.1,1-2.4,1.5-3.8,1.5c-1.4,0-2.6-0.4-3.4-1
			c-0.9-0.7-1.4-1.5-1.6-2.4H292v46.2h53.6c0.2-0.5,0.8-1,1.6-1.5c0.9-0.5,2-0.8,3.4-0.8c1.4,0,2.7,0.5,3.8,1.4
			c1.1,0.9,1.6,2,1.6,3.2c0,1.3-0.6,2.5-1.6,3.3c-1.1,0.9-2.4,1.3-3.8,1.3c-1.4,0-2.6-0.3-3.4-1s-1.4-1.5-1.6-2.4H292v48.5h66.3
			c0.2-0.5,0.8-1,1.6-1.5c0.8-0.6,2-0.8,3.4-0.8c1.4,0,2.7,0.5,3.8,1.4c1,0.9,1.6,2,1.6,3.2c0,1.3-0.5,2.5-1.6,3.3
			c-1.1,0.9-2.3,1.3-3.7,1.3s-2.6-0.3-3.4-1c-0.9-0.7-1.4-1.5-1.6-2.5h-69.9V53.1z M353.6,165.2c2.9,3.8,6.3,5.8,10.3,5.8
			c3.7,0,7-1.3,9.8-4c2.9-2.7,4.3-5.9,4.3-9.9c0-3.7-1.4-6.9-4.3-9.7c-2.8-2.8-6.1-4.2-9.8-4.2c-4,0-7.3,1.6-10.1,4.6H300v-34.6
			h40.8c2.9,3.9,6.4,5.8,10.4,5.8c3.7,0,7-1.3,9.9-4c2.9-2.7,4.3-5.9,4.3-9.9c0-3.6-1.4-6.9-4.3-9.7c-2.8-2.8-6.1-4.2-9.9-4.2
			c-4,0-7.4,1.5-10.2,4.6h-41V63.5h53.6c2.9,3.9,6.3,5.8,10.3,5.8c3.7,0,7-1.4,9.8-4.2c2.9-2.8,4.3-6.2,4.3-10.3
			c0-3.8-1.4-7.2-4.3-10.1c-2.8-2.9-6.1-4.4-9.8-4.4c-4,0-7.3,1.9-10.1,5.8h-73.2v119H353.6z"/>
		<path display="inline" fill-rule="evenodd" clip-rule="evenodd" fill="#FFFFFF" d="M472.3,53.1c0.2-0.7,0.8-1.4,1.6-2.2
			c0.9-0.8,2-1.2,3.4-1.2c1.4,0,2.7,0.5,3.7,1.6c1.1,1,1.6,2.2,1.6,3.6c0,1.5-0.5,2.8-1.6,3.7c-1,1-2.3,1.5-3.7,1.5
			c-1.4,0-2.6-0.4-3.4-1c-0.8-0.7-1.3-1.5-1.6-2.4h-31v94.7c0.4,0.3,1,0.8,2,1.6c1,0.9,1.4,2,1.4,3.4c0,1.4-0.5,2.7-1.6,3.8
			c-1,1.1-2.2,1.6-3.6,1.6c-1.5,0-2.7-0.6-3.7-1.6c-1-1.1-1.4-2.3-1.4-3.8c0-1.4,0.3-2.6,0.8-3.4c0.6-0.8,1-1.3,1.5-1.6V56.6h-31.1
			c-0.3,1-0.8,1.8-1.6,2.4c-0.9,0.7-1.9,1-3.2,1c-1.4,0-2.7-0.5-3.7-1.5c-1-1-1.6-2.2-1.6-3.7c0-1.4,0.5-2.6,1.6-3.6
			c1.1-1,2.3-1.6,3.7-1.6c1.3,0,2.4,0.4,3.2,1.2c0.8,0.8,1.4,1.6,1.6,2.2H472.3z M428.7,63.5v83.1c-2.3,2.9-3.4,6.3-3.4,10.1
			c0,3.9,1.4,7.2,4.2,10c2.8,2.8,6.1,4.2,10.2,4.2c3.8,0,7.1-1.4,10-4.2c2.9-2.8,4.3-6.1,4.3-10c0-3.8-1.5-7.2-4.6-10V63.5h18.6
			c2.8,3.9,6.2,5.8,10.1,5.8c3.6,0,6.9-1.4,9.6-4.2c2.8-2.8,4.1-6.2,4.1-10.3c0-3.8-1.4-7.2-4.2-10.1c-2.8-2.9-6.1-4.4-9.8-4.4
			c-3.9,0-7.3,1.9-10,5.8h-57.5c-2.8-3.8-6.1-5.8-9.9-5.8c-3.8,0-7.1,1.5-9.9,4.4c-2.8,2.9-4.6,6.3-4.6,10.1c0,4.1,1.8,7.5,4.5,10.3
			c2.7,2.8,5.9,4.2,9.7,4.2c3.8,0,7.1-1.9,9.9-5.8H428.7z"/>
		<path display="inline" fill-rule="evenodd" clip-rule="evenodd" fill="#FFFFFF" d="M515.5,154.8h57.2c0.2-0.5,0.8-1,1.6-1.5
			c0.8-0.6,2-0.8,3.4-0.8c1.4,0,2.7,0.5,3.8,1.4c1.1,0.9,1.6,2,1.6,3.2c0,1.3-0.5,2.5-1.6,3.3c-1.1,0.9-2.3,1.3-3.7,1.3
			c-1.4,0-2.6-0.3-3.4-1c-0.8-0.7-1.4-1.5-1.6-2.5h-60.8V60.3c-0.6-0.2-1.4-0.8-2.2-1.6c-0.8-0.8-1.2-2-1.2-3.6
			c0-1.4,0.5-2.7,1.4-3.8c1-1.1,2.2-1.6,3.7-1.6c1.3,0,2.6,0.5,3.6,1.6c1,1.1,1.5,2.4,1.5,3.8c0,1.6-0.5,2.8-1.4,3.6
			c-1,0.9-1.6,1.4-2,1.6V154.8z M504.1,64.8v100.4h64c2.9,3.8,6.3,5.8,10.2,5.8c3.7,0,7-1.3,9.8-4c2.8-2.7,4.2-5.9,4.2-9.9
			c0-3.7-1.4-6.9-4.2-9.7c-2.8-2.8-6.1-4.2-9.8-4.2c-3.9,0-7.3,1.6-10,4.6h-44.8V64.7c3-2.8,4.6-6.1,4.6-10.1c0-3.7-1.5-7-4.3-9.9
			c-2.9-2.9-6.2-4.3-10-4.3c-4.1,0-7.4,1.4-10.2,4.2c-2.8,2.8-4.1,6.1-4.1,9.8C499.5,58.5,501,61.9,504.1,64.8z"/>
		<path display="inline" fill-rule="evenodd" clip-rule="evenodd" fill="#FFFFFF" d="M608.3,53.1h69.9c0.2-0.8,0.8-1.5,1.6-2.3
			c0.9-0.8,2-1.1,3.4-1.1c1.4,0,2.7,0.5,3.7,1.6c1.1,1,1.6,2.2,1.6,3.6c0,1.5-0.6,2.8-1.6,3.7c-1.1,1-2.3,1.5-3.8,1.5
			s-2.6-0.4-3.4-1c-0.9-0.7-1.4-1.5-1.6-2.4h-66.3v46.2h53.7c0.2-0.5,0.8-1,1.6-1.5c0.8-0.5,2-0.8,3.4-0.8c1.5,0,2.7,0.5,3.8,1.4
			c1.1,0.9,1.6,2,1.6,3.2c0,1.3-0.5,2.5-1.6,3.3c-1.1,0.9-2.4,1.3-3.8,1.3c-1.4,0-2.6-0.3-3.4-1c-0.9-0.7-1.4-1.5-1.6-2.4h-53.7
			v48.5h66.3c0.2-0.5,0.8-1,1.6-1.5c0.9-0.6,2-0.8,3.4-0.8s2.7,0.5,3.8,1.4s1.6,2,1.6,3.2c0,1.3-0.5,2.5-1.6,3.3
			c-1.1,0.9-2.3,1.3-3.7,1.3c-1.4,0-2.6-0.3-3.4-1c-0.8-0.7-1.4-1.5-1.6-2.5h-69.9V53.1z M673.4,165.2c2.9,3.8,6.3,5.8,10.3,5.8
			c3.7,0,7-1.3,9.8-4c2.8-2.7,4.2-5.9,4.2-9.9c0-3.7-1.4-6.9-4.2-9.7c-2.8-2.8-6.1-4.2-9.8-4.2c-4,0-7.3,1.6-10.1,4.6h-53.7v-34.6
			h40.8c2.9,3.9,6.3,5.8,10.4,5.8c3.7,0,7-1.3,9.9-4c2.8-2.7,4.3-5.9,4.3-9.9c0-3.6-1.4-6.9-4.3-9.7c-2.9-2.8-6.1-4.2-9.9-4.2
			c-4,0-7.4,1.5-10.2,4.6h-41V63.5h53.6c2.9,3.9,6.3,5.8,10.3,5.8c3.7,0,7-1.4,9.8-4.2c2.8-2.8,4.2-6.2,4.2-10.3
			c0-3.8-1.4-7.2-4.2-10.1c-2.8-2.9-6.1-4.4-9.8-4.4c-4,0-7.3,1.9-10.1,5.8h-73.2v119H673.4z"/>
	</g>
	<g id="Filled" display="inline">
		<path fill-rule="evenodd" clip-rule="evenodd" fill="#FFFFFF" d="M141,142.1c-3.1,3.2-7,4.9-11.8,5.1H83.1V64h40.8
			c4.8,0.3,8.7,1.9,11.6,5c3,3.1,4.5,6.7,4.5,10.7c0,4.3-1.5,7.9-4.5,10.8c-3,3-6.6,4.6-10.7,4.8h-14.9c-2.9-3.3-6.3-5-10.2-5
			c-3.9,0-7.3,1.4-10.2,4.3c-2.2,2.2-3.5,4.8-4,7.7v2.2c0,4,1.4,7.3,4.2,10.1c2.8,2.8,6.1,4.2,10,4.2c3.9,0,7.2-1.7,10-5.1h17.8
			c5.4,0.3,9.9,2.1,13.2,5.4c3.4,3.3,5.1,7.1,5.1,11.4C145.8,135,144.2,138.9,141,142.1z M63.3,64.9v81.7c-2.9,2.9-4.4,6.3-4.4,10.1
			s1.3,7.2,4.1,10c2.7,2.8,6.1,4.2,10.1,4.2c3.8,0,7.1-1.7,10.1-5h48c9.1,0,17.3-3.4,24.6-10.2c7.2-6.8,10.9-15.1,10.9-25
			c-0.5-8-2.7-14.2-6.6-18.8c-4-4.5-8.1-7.6-12.3-9.3c2.7-1.6,5.2-4.1,7.7-7.6c2.5-3.5,3.9-8.7,4.3-15.4c0-9.4-3.4-17.4-10.3-24.1
			s-15.7-10-26.5-10H83c-2.9-3.4-6.2-5.1-9.9-5.1c-4,0-7.3,1.4-10,4.3S59,50.8,59,54.6C59,58.6,60.4,62,63.3,64.9z"/>
		<path fill-rule="evenodd" clip-rule="evenodd" fill="#FFFFFF" d="M247.4,166c2.9,3.4,6.4,5,10.3,5c3.7,0,7-1.3,9.9-4.1
			c2.8-2.7,4.3-6.1,4.3-10.2c0-3.8-1.4-7.2-4.3-10c-2.9-2.9-6.2-4.3-9.9-4.3c-4,0-7.4,1.7-10.2,5h-54V114h40.8c2.9,3.4,6.3,5,10.3,5
			c3.7,0,7-1.3,9.9-4.1c2.8-2.7,4.3-6.1,4.3-10.2c0-3.8-1.4-7.1-4.3-10c-2.9-2.9-6.2-4.3-9.9-4.3c-4,0-7.4,1.7-10.2,5h-41V63.1h53.9
			c2.9,3.4,6.4,5,10.3,5c3.7,0,7-1.3,9.9-4c2.8-2.7,4.3-6,4.3-9.8c0-3.6-1.4-6.8-4.3-9.6c-2.9-2.8-6.2-4.2-9.9-4.2
			c-4,0-7.4,1.7-10.2,5.2h-73.8V166H247.4z"/>
		<path fill-rule="evenodd" clip-rule="evenodd" fill="#FFFFFF" d="M353.8,166c2.9,3.4,6.3,5.1,10.3,5.1c3.7,0,7-1.4,9.9-4.1
			c2.8-2.7,4.3-6.1,4.3-10.2c0-3.8-1.4-7.1-4.3-10c-2.9-2.9-6.2-4.3-9.9-4.3c-4,0-7.4,1.7-10.2,5h-54.1V114h40.8
			c2.9,3.4,6.4,5,10.4,5c3.7,0,7-1.3,9.9-4.1c2.9-2.7,4.3-6.1,4.3-10.2c0-3.8-1.4-7.1-4.3-10s-6.1-4.3-9.9-4.3c-4,0-7.4,1.7-10.2,5
			h-41V63.1h53.9c2.9,3.4,6.3,5.1,10.3,5.1c3.7,0,7-1.3,9.9-4c2.8-2.7,4.3-5.9,4.3-9.8c0-3.6-1.4-6.8-4.3-9.6
			c-2.9-2.8-6.2-4.2-9.9-4.2c-4,0-7.4,1.7-10.2,5.2h-73.8V166H353.8z"/>
		<path fill-rule="evenodd" clip-rule="evenodd" fill="#FFFFFF" d="M428.6,64v82.7c-2.9,2.9-4.4,6.3-4.4,10.1c0,3.9,1.4,7.2,4.1,9.9
			c2.7,2.8,6.1,4.2,10.1,4.2c3.8,0,7.1-1.4,10-4.2c2.8-2.8,4.3-6.1,4.3-9.9c0-3.8-1.4-7.1-4.4-9.9V64h19c2.9,3.4,6.4,5,10.4,5
			c3.7,0,7-1.3,9.9-4.1c2.9-2.7,4.3-6.1,4.3-10.2c0-3.8-1.4-7.1-4.3-10s-6.1-4.3-9.9-4.3c-4,0-7.4,1.7-10.2,5h-58.2
			c-2.8-3.3-6.1-5-10-5c-3.9,0-7.2,1.4-10,4.3s-4.2,6.2-4.2,10c0,4.1,1.4,7.5,4.2,10.2c2.8,2.8,6.1,4.1,10,4.1c3.9,0,7.3-1.7,10.2-5
			H428.6z"/>
		<path fill-rule="evenodd" clip-rule="evenodd" fill="#FFFFFF" d="M502.4,64.9V166h64.9c2.9,3.4,6.4,5,10.4,5c3.7,0,7-1.3,9.9-4.1
			c2.9-2.7,4.3-6.1,4.3-10.2c0-3.8-1.4-7.2-4.3-10c-2.9-2.9-6.1-4.3-9.9-4.3c-4,0-7.4,1.7-10.2,5h-45.4V64.7
			c2.9-2.8,4.4-6.1,4.4-10.1c0-3.7-1.4-7-4.3-9.8c-2.9-2.8-6.2-4.3-10-4.3c-4,0-7.4,1.4-10.1,4.3c-2.8,2.8-4.1,6.1-4.1,9.8
			C498.1,58.6,499.5,62.1,502.4,64.9z"/>
		<path fill-rule="evenodd" clip-rule="evenodd" fill="#FFFFFF" d="M671.9,166c2.9,3.4,6.4,5.1,10.3,5.1c3.7,0,7-1.4,9.9-4.1
			c2.8-2.8,4.3-6.1,4.3-10.2c0-3.8-1.4-7.1-4.3-10c-2.9-2.9-6.2-4.3-9.9-4.3c-4,0-7.4,1.7-10.1,5H618V114h40.8
			c2.9,3.4,6.3,5.1,10.3,5.1c3.7,0,7-1.4,9.9-4.1c2.8-2.8,4.3-6.1,4.3-10.2c0-3.8-1.4-7.1-4.3-10c-2.9-2.9-6.2-4.3-9.9-4.3
			c-4,0-7.4,1.7-10.2,5h-41V63.1h53.9c2.9,3.4,6.4,5,10.3,5c3.7,0,7-1.3,9.9-4c2.8-2.7,4.3-5.9,4.3-9.8c0-3.6-1.4-6.8-4.3-9.6
			c-2.9-2.8-6.2-4.2-9.9-4.2c-4,0-7.4,1.7-10.1,5.2h-73.8V166H671.9z"/>
	</g>
</g>
<g id="limegreen" display="none">
	<g id="Filled_3_" display="inline">
		<path fill-rule="evenodd" clip-rule="evenodd" fill="#A3D900" d="M141.7,142.1c-3.1,3.2-7,4.9-11.8,5.1H83.7V64h40.8
			c4.8,0.3,8.7,1.9,11.6,5c3,3.1,4.5,6.7,4.5,10.7c0,4.3-1.5,7.9-4.5,10.8c-3,3-6.6,4.6-10.7,4.8h-14.9c-2.9-3.3-6.3-5-10.2-5
			c-3.9,0-7.3,1.4-10.2,4.3c-2.2,2.2-3.5,4.8-4,7.7v2.2c0,4,1.4,7.3,4.2,10.1c2.8,2.8,6.1,4.2,10,4.2c3.9,0,7.2-1.7,10-5.1H128
			c5.4,0.3,9.9,2.1,13.2,5.4c3.4,3.3,5.1,7.1,5.1,11.4C146.4,135,144.8,138.9,141.7,142.1z M63.9,64.9v81.7
			c-2.9,2.9-4.4,6.3-4.4,10.1s1.3,7.2,4.1,10c2.7,2.8,6.1,4.2,10.1,4.2c3.8,0,7.1-1.7,10.1-5h48c9.1,0,17.3-3.4,24.6-10.2
			c7.2-6.8,10.9-15.1,10.9-25c-0.5-8-2.7-14.2-6.6-18.8c-4-4.5-8.1-7.6-12.3-9.3c2.7-1.6,5.2-4.1,7.7-7.6c2.5-3.5,3.9-8.7,4.3-15.4
			c0-9.4-3.4-17.4-10.3-24.1s-15.7-10-26.5-10H83.6c-2.9-3.4-6.2-5.1-9.9-5.1c-4,0-7.3,1.4-10,4.3c-2.7,2.8-4.1,6.1-4.1,9.9
			C59.6,58.6,61,62,63.9,64.9z"/>
		<path fill-rule="evenodd" clip-rule="evenodd" fill="#A3D900" d="M248,166c2.9,3.4,6.4,5,10.3,5c3.7,0,7-1.3,9.9-4.1
			c2.8-2.7,4.3-6.1,4.3-10.2c0-3.8-1.4-7.2-4.3-10c-2.9-2.9-6.2-4.3-9.9-4.3c-4,0-7.4,1.7-10.2,5h-54V114h40.8c2.9,3.4,6.3,5,10.3,5
			c3.7,0,7-1.3,9.9-4.1c2.8-2.7,4.3-6.1,4.3-10.2c0-3.8-1.4-7.1-4.3-10c-2.9-2.9-6.2-4.3-9.9-4.3c-4,0-7.4,1.7-10.2,5h-41V63.1H248
			c2.9,3.4,6.4,5,10.3,5c3.7,0,7-1.3,9.9-4c2.8-2.7,4.3-6,4.3-9.8c0-3.6-1.4-6.8-4.3-9.6c-2.9-2.8-6.2-4.2-9.9-4.2
			c-4,0-7.4,1.7-10.2,5.2h-73.8V166H248z"/>
		<path fill-rule="evenodd" clip-rule="evenodd" fill="#A3D900" d="M354.4,166c2.9,3.4,6.3,5.1,10.3,5.1c3.7,0,7-1.4,9.9-4.1
			c2.8-2.7,4.3-6.1,4.3-10.2c0-3.8-1.4-7.1-4.3-10c-2.9-2.9-6.2-4.3-9.9-4.3c-4,0-7.4,1.7-10.2,5h-54.1V114h40.8
			c2.9,3.4,6.4,5,10.4,5c3.7,0,7-1.3,9.9-4.1c2.9-2.7,4.3-6.1,4.3-10.2c0-3.8-1.4-7.1-4.3-10s-6.1-4.3-9.9-4.3c-4,0-7.4,1.7-10.2,5
			h-41V63.1h53.9c2.9,3.4,6.3,5.1,10.3,5.1c3.7,0,7-1.3,9.9-4c2.8-2.7,4.3-5.9,4.3-9.8c0-3.6-1.4-6.8-4.3-9.6
			c-2.9-2.8-6.2-4.2-9.9-4.2c-4,0-7.4,1.7-10.2,5.2h-73.8V166H354.4z"/>
		<path fill-rule="evenodd" clip-rule="evenodd" fill="#A3D900" d="M429.2,64v82.7c-2.9,2.9-4.4,6.3-4.4,10.1c0,3.9,1.4,7.2,4.1,9.9
			c2.7,2.8,6.1,4.2,10.1,4.2c3.8,0,7.1-1.4,10-4.2c2.8-2.8,4.3-6.1,4.3-9.9c0-3.8-1.4-7.1-4.4-9.9V64h19c2.9,3.4,6.4,5,10.4,5
			c3.7,0,7-1.3,9.9-4.1c2.9-2.7,4.3-6.1,4.3-10.2c0-3.8-1.4-7.1-4.3-10s-6.1-4.3-9.9-4.3c-4,0-7.4,1.7-10.2,5h-58.2
			c-2.8-3.3-6.1-5-10-5s-7.2,1.4-10,4.3s-4.2,6.2-4.2,10c0,4.1,1.4,7.5,4.2,10.2c2.8,2.8,6.1,4.1,10,4.1s7.3-1.7,10.2-5H429.2z"/>
		<path fill-rule="evenodd" clip-rule="evenodd" fill="#A3D900" d="M503,64.9V166h64.9c2.9,3.4,6.4,5,10.4,5c3.7,0,7-1.3,9.9-4.1
			c2.9-2.7,4.3-6.1,4.3-10.2c0-3.8-1.4-7.2-4.3-10c-2.9-2.9-6.1-4.3-9.9-4.3c-4,0-7.4,1.7-10.2,5h-45.4V64.7
			c2.9-2.8,4.4-6.1,4.4-10.1c0-3.7-1.4-7-4.3-9.8c-2.9-2.8-6.2-4.3-10-4.3c-4,0-7.4,1.4-10.1,4.3c-2.8,2.8-4.1,6.1-4.1,9.8
			C498.7,58.6,500.1,62.1,503,64.9z"/>
		<path fill-rule="evenodd" clip-rule="evenodd" fill="#A3D900" d="M672.5,166c2.9,3.4,6.4,5.1,10.3,5.1c3.7,0,7-1.4,9.9-4.1
			c2.8-2.8,4.3-6.1,4.3-10.2c0-3.8-1.4-7.1-4.3-10c-2.9-2.9-6.2-4.3-9.9-4.3c-4,0-7.4,1.7-10.1,5h-54.1V114h40.8
			c2.9,3.4,6.3,5.1,10.3,5.1c3.7,0,7-1.4,9.9-4.1c2.8-2.8,4.3-6.1,4.3-10.2c0-3.8-1.4-7.1-4.3-10c-2.9-2.9-6.2-4.3-9.9-4.3
			c-4,0-7.4,1.7-10.2,5h-41V63.1h53.9c2.9,3.4,6.4,5,10.3,5c3.7,0,7-1.3,9.9-4c2.8-2.7,4.3-5.9,4.3-9.8c0-3.6-1.4-6.8-4.3-9.6
			c-2.9-2.8-6.2-4.2-9.9-4.2c-4,0-7.4,1.7-10.1,5.2h-73.8V166H672.5z"/>
	</g>
</g>
<g id="greyblue_white_outline">
	<g id="Filled_2_">
		<path fill-rule="evenodd" clip-rule="evenodd" fill="#C5DADB" d="M140.4,141.4c-3.1,3.2-7,5.9-11.8,6.1H82.4V62.3h40.8
			c4.8,0.3,8.7,2.9,11.6,6c3,3.1,3.5,6.7,3.5,10.7c0,4.3-0.5,7.9-3.5,10.8c-3,3-6.6,5.6-10.7,5.8h-14.9c-2.9-3.3-5.3-5-9.2-5
			c-3.9,0-7.3,1.4-10.2,4.3c-2.2,2.2-3.5,4.8-4,7.7v2.2c0,4,1.4,5.3,4.2,8.1c2.8,2.8,6.1,4.2,10,4.2c3.9,0,6.2-1.7,9-5.1h17.8
			c5.4,0.3,9.9,3.1,13.2,6.4c3.4,3.3,5.1,7.1,5.1,11.4C145.1,134.3,143.5,138.2,140.4,141.4z M62.7,64.2v81.7
			c-2.9,2.9-4.4,6.3-4.4,10.1s1.3,6.2,4.1,9c2.7,2.8,6.1,4.2,10.1,4.2c3.8,0,7.1-1.7,10.1-5l48,1c9.1,0,16.3-3.4,23.6-10.2
			c7.2-6.8,10.9-15.1,10.9-25c-0.5-8-2.7-14.2-6.6-18.8c-4-4.5-7.1-7.6-11.3-9.3c2.7-1.6,5.2-4.1,7.7-7.6c2.5-3.5,2.9-8.7,3.3-15.4
			c0-9.4-3.4-16.4-10.3-23.1s-14.7-10-25.5-10H82.3c-2.9-3.4-6.2-5.1-9.9-5.1c-4,0-7.3,0.4-10,3.3c-2.7,2.8-4.1,6.1-4.1,9.9
			C58.3,57.8,59.8,61.3,62.7,64.2z"/>
		<path fill-rule="evenodd" clip-rule="evenodd" fill="#C5DADB" d="M246.7,164.3c2.9,3.4,6.4,5,10.3,5c3.7,0,7-1.3,9.9-4.1
			c2.8-2.7,4.3-5.1,4.3-9.2c0-3.8-1.4-6.2-4.3-9c-2.9-2.9-6.2-4.3-9.9-4.3c-4,0-7.4,1.7-10.2,5h-54v-36.5l40.8,1
			c2.9,3.4,6.3,5,10.3,5c3.7,0,7-1.3,9.9-4.1c2.8-2.7,4.3-5.1,4.3-9.2c0-3.8-1.4-6.1-4.3-9c-2.9-2.9-6.2-4.3-9.9-4.3
			c-4,0-7.4,1.7-10.2,5l-41-1V62.4h53.9c2.9,3.4,6.4,5,10.3,5c3.7,0,7-1.3,9.9-4c2.8-2.7,4.3-6,4.3-9.8c0-3.6-1.4-5.8-4.3-8.6
			c-2.9-2.8-6.2-4.2-9.9-4.2c-4,0-7.4,1.7-10.2,5.2h-72.8v118.3H246.7z"/>
		<path fill-rule="evenodd" clip-rule="evenodd" fill="#C5DADB" d="M353.1,164.3c2.9,3.4,6.3,5.1,10.3,5.1c3.7,0,7-1.4,9.9-4.1
			c2.8-2.7,4.3-4.1,4.3-8.2c0-3.8-1.4-7.1-4.3-10c-2.9-2.9-6.2-4.3-9.9-4.3c-4,0-7.4,1.7-10.2,5h-54.1v-35.5H340
			c2.9,3.4,6.4,5,10.4,5c3.7,0,7-1.3,9.9-4.1c2.9-2.7,4.3-4.1,4.3-8.2c0-3.8-1.4-7.1-4.3-10s-6.1-4.3-9.9-4.3c-4,0-7.4,1.7-10.2,5
			h-41V62.4h53.9c2.9,3.4,6.3,5.1,10.3,5.1c3.7,0,7-0.3,9.9-3c2.8-2.7,4.3-5.9,4.3-9.8c0-3.6-1.4-6.8-4.3-9.6
			c-2.9-2.8-6.2-4.2-9.9-4.2c-4,0-7.4,1.7-10.2,5.2h-72.8v118.3H353.1z"/>
		<path fill-rule="evenodd" clip-rule="evenodd" fill="#C5DADB" d="M427.9,63.3l1,83.7c-2.9,2.9-4.4,6.3-4.4,10.1
			c0,3.9,1.4,7.2,4.1,9.9c2.7,2.8,5.1,4.2,9.1,4.2c3.8,0,7.1-1.4,10-4.2c2.8-2.8,4.3-6.1,4.3-9.9c0-3.8-1.4-7.1-4.4-9.9V63.3h19
			c2.9,3.4,6.4,5,10.4,5c3.7,0,7-1.3,9.9-4.1c2.9-2.7,4.3-5.1,4.3-9.2c0-3.8-1.4-6.1-4.3-9s-6.1-4.3-9.9-4.3c-4,0-7.4,1.7-10.2,5
			h-58.2c-2.8-3.3-6.1-5-10-5s-6.2,1.4-9,4.3s-4.2,5.2-4.2,9c0,4.1,1.4,6.5,4.2,9.2c2.8,2.8,5.1,4.1,9,4.1s7.3-1.7,10.2-5H427.9z"/>
		<path fill-rule="evenodd" clip-rule="evenodd" fill="#C5DADB" d="M501.8,65.2v100.1h64.9c2.9,3.4,6.4,5,10.4,5
			c3.7,0,6-1.3,8.9-4.1c2.9-2.7,4.3-4.1,4.3-8.2c0-3.8-1.4-7.2-4.3-10c-2.9-2.9-5.1-4.3-8.9-4.3c-4,0-7.4,1.7-10.2,5h-45.4V65
			c2.9-2.8,4.4-6.1,4.4-10.1c0-3.7-1.4-7-4.3-9.8c-2.9-2.8-6.2-4.3-10-4.3c-4,0-7.4,1.4-10.1,4.3c-2.8,2.8-4.1,6.1-4.1,9.8
			C497.4,58.9,498.9,62.3,501.8,65.2z"/>
		<path fill-rule="evenodd" clip-rule="evenodd" fill="#C5DADB" d="M671.2,165.3c2.9,3.4,6.4,5.1,10.3,5.1c3.7,0,7-0.4,9.9-3.1
			c2.8-2.8,4.3-5.1,4.3-9.2c0-3.8-1.4-7.1-4.3-10c-2.9-2.9-6.2-4.3-9.9-4.3c-4,0-7.4,1.7-10.1,5h-54.1v-35.5h40.8
			c2.9,3.4,6.3,5.1,10.3,5.1c3.7,0,7-1.4,9.9-4.1c2.8-2.8,4.3-5.1,4.3-9.2c0-3.8-1.4-6.1-4.3-9c-2.9-2.9-6.2-4.3-9.9-4.3
			c-4,0-7.4,1.7-10.2,5h-41V63.4h53.9c2.9,3.4,6.4,5,10.3,5c3.7,0,7-1.3,9.9-4c2.8-2.7,4.3-5.9,4.3-9.8c0-3.6-1.4-6.8-4.3-9.6
			c-2.9-2.8-6.2-4.2-9.9-4.2c-4,0-7.4,1.7-10.1,5.2h-73.8v119.3H671.2z"/>
	</g>
	<g id="White_outline">
		<path fill-rule="evenodd" clip-rule="evenodd" fill="#FFFFFF" d="M139.8,142.1c-3.1,3.4-7,5.1-11.7,5.4H82.2V62.6h40.5
			c4.7,0.3,8.6,2,11.5,5.2c3,3.2,4.5,6.9,4.5,11.1c0,4.4-1.5,8.2-4.4,11.3c-3,3.1-6.4,4.7-10.4,5h-14.5c-2.9-3.1-6.1-4.7-9.9-4.7
			c-3.8,0-7.1,1.4-9.9,4.3c-2.1,2.1-3.4,4.7-3.9,7.5v2.1c0,3.8,1.4,7.1,4.1,9.9c2.7,2.7,6,4.1,9.8,4.1c3.8,0,7.1-1.9,9.9-5.8h17.5
			c5.4,0.3,9.6,2.1,12.7,5.5c3.1,3.5,4.7,7.4,4.7,11.9C144.4,134.7,142.9,138.7,139.8,142.1z M123.4,52.2c8,0,14.7,2.6,20.1,7.9
			c5.3,5.3,8.1,11.6,8.2,18.9c-0.1,7.2-2,12.8-5.7,16.6c-3.7,3.8-6.7,6.3-8.9,7.5h-0.2c4.3,1.4,8.7,4.3,13.2,8.8
			c4.5,4.5,6.8,10.6,6.9,18.2c-0.1,7.8-3,14.4-8.5,19.8c-5.6,5.4-12,8-19.2,8H77.7c-0.1,0.7-0.6,1.5-1.4,2.3
			c-0.9,0.8-2.1,1.2-3.6,1.2s-2.9-0.5-3.9-1.6c-1-1.1-1.6-2.3-1.6-3.8c0-1.5,0.4-2.6,1.3-3.4c0.8-0.8,1.6-1.4,2.2-1.6V59.4
			c-0.6-0.2-1.4-0.8-2.2-1.6c-0.8-0.8-1.3-2-1.3-3.6c0-1.5,0.5-2.7,1.6-3.8c1-1.1,2.3-1.6,3.9-1.6s2.8,0.4,3.6,1.3
			c0.8,0.9,1.3,1.6,1.4,2.2H123.4z M145.6,112.9c-4.6-4.8-10.5-7.3-17.6-7.3H105c-0.3,0.8-0.8,1.6-1.6,2.3c-0.8,0.8-1.9,1.1-3.2,1.1
			c-1.4,0-2.7-0.5-3.7-1.4c-1.1-0.9-1.6-2-1.6-3.3c0-0.6,0.1-1.2,0.4-1.8c0.2-0.5,0.8-1.1,1.6-1.8c0.8-0.7,1.9-1,3.4-1
			c1.3,0,2.3,0.3,3.2,0.8c0.8,0.5,1.4,1,1.6,1.6h19.6c6,0,11.2-2.3,15.6-6.8c4.4-4.6,6.6-10,6.6-16.4c0-6.2-2.3-11.6-6.8-16.3
			c-4.5-4.7-10.2-7-17.1-7H77c-0.1,0.7-0.6,1.5-1.3,2.2c-0.7,0.7-1.3,1.2-1.6,1.3v92c0.4,0.1,0.9,0.5,1.6,1.3c0.7,0.7,1.2,1.4,1.3,2
			h52.1c6.2,0,11.6-2.4,16.3-7.2c4.7-4.8,7.1-10.5,7.1-17.2C152.5,123.5,150.2,117.8,145.6,112.9z M62.6,64v82.2
			c-3.1,2.9-4.6,6.3-4.6,10.2s1.4,7.2,4.1,10c2.7,2.8,6,4.2,10,4.2c3.7,0,7-1.9,9.9-5.8h48.4c9,0,18.1-3.4,25.2-10.1
			c7.1-6.7,9.7-15,9.7-24.9c-0.4-7.9-3.3-14.1-6.9-18.6c-3.6-4.5-7.5-7.6-11.7-9.3c2.6-1.6,5.2-4.1,7.7-7.6
			c2.4-3.5,3.9-8.6,4.2-15.3c0-9.4-3.4-17.3-10.3-23.9c-6.9-6.6-15.7-9.9-26.5-9.9H81.9c-2.9-3.9-6.2-5.8-9.9-5.8
			c-4,0-7.3,1.5-10,4.3c-2.7,2.9-4.1,6.2-4.1,9.9C58,57.7,59.5,61.1,62.6,64z"/>
		<path fill-rule="evenodd" clip-rule="evenodd" fill="#FFFFFF" d="M181.8,52.2h70.3c0.2-0.8,0.8-1.5,1.6-2.3
			c0.8-0.8,1.9-1.2,3.4-1.2c1.5,0,2.7,0.5,3.8,1.6c1.1,1.1,1.6,2.2,1.6,3.6c0,1.6-0.6,2.8-1.6,3.8c-1.1,1-2.3,1.5-3.8,1.5
			s-2.6-0.4-3.5-1.1c-0.8-0.7-1.4-1.5-1.6-2.4h-66.7v46.5h54c0.2-0.5,0.8-1,1.6-1.5c0.9-0.5,2-0.8,3.5-0.8c1.5,0,2.7,0.5,3.8,1.4
			c1.1,0.9,1.6,2,1.6,3.2c0,1.4-0.6,2.5-1.6,3.4c-1.1,0.9-2.4,1.3-3.8,1.3c-1.5,0-2.6-0.3-3.5-1c-0.9-0.7-1.4-1.5-1.6-2.4h-54v48.8
			h66.7c0.2-0.5,0.8-1,1.6-1.5c0.9-0.6,2-0.8,3.5-0.8s2.7,0.5,3.8,1.4c1.1,0.9,1.6,2,1.6,3.2c0,1.4-0.5,2.5-1.6,3.3
			c-1.1,0.9-2.3,1.3-3.8,1.3c-1.5,0-2.6-0.3-3.4-1c-0.9-0.7-1.4-1.5-1.6-2.5h-70.3V52.2z M247.2,164.9c2.9,3.9,6.3,5.8,10.4,5.8
			c3.7,0,7-1.3,9.9-4c2.9-2.7,4.3-6,4.3-9.9c0-3.7-1.4-6.9-4.3-9.7c-2.8-2.8-6.1-4.2-9.9-4.2c-4,0-7.4,1.6-10.2,4.7h-54.1v-34.8
			h41.1c2.9,3.9,6.4,5.8,10.4,5.8c3.8,0,7.1-1.3,9.9-4c2.9-2.7,4.3-6,4.3-9.9c0-3.7-1.4-6.9-4.3-9.7c-2.8-2.8-6.2-4.2-9.9-4.2
			c-4,0-7.5,1.6-10.2,4.7h-41.3V62.6h53.9c2.9,3.9,6.3,5.8,10.4,5.8c3.7,0,7-1.4,9.9-4.2c2.9-2.8,4.3-6.2,4.3-10.3
			c0-3.8-1.4-7.2-4.3-10.1c-2.8-2.9-6.1-4.4-9.9-4.4c-4,0-7.4,1.9-10.2,5.8h-73.7v119.7H247.2z"/>
		<path fill-rule="evenodd" clip-rule="evenodd" fill="#FFFFFF" d="M287.9,52.2h70.3c0.2-0.8,0.8-1.5,1.6-2.3
			c0.8-0.8,1.9-1.2,3.4-1.2s2.7,0.5,3.8,1.6c1.1,1.1,1.6,2.2,1.6,3.6c0,1.6-0.6,2.8-1.6,3.8c-1.1,1-2.4,1.5-3.8,1.5
			c-1.5,0-2.6-0.4-3.4-1.1c-0.9-0.7-1.4-1.5-1.6-2.4h-66.7v46.5h54c0.2-0.5,0.8-1,1.6-1.5c0.9-0.5,2-0.8,3.5-0.8s2.7,0.5,3.8,1.4
			c1.1,0.9,1.6,2,1.6,3.2c0,1.4-0.6,2.5-1.6,3.4c-1.1,0.9-2.4,1.3-3.8,1.3s-2.6-0.3-3.5-1c-0.9-0.7-1.4-1.5-1.6-2.4h-54v48.8h66.7
			c0.2-0.5,0.8-1,1.6-1.5c0.8-0.6,2-0.8,3.4-0.8c1.5,0,2.7,0.5,3.8,1.4c1.1,0.9,1.6,2,1.6,3.2c0,1.4-0.5,2.5-1.6,3.3
			c-1.1,0.9-2.3,1.3-3.8,1.3s-2.6-0.3-3.4-1c-0.9-0.7-1.4-1.5-1.6-2.5h-70.3V52.2z M353.3,164.9c2.9,3.9,6.3,5.8,10.4,5.8
			c3.7,0,7-1.3,9.9-4c2.9-2.7,4.3-6,4.3-9.9c0-3.7-1.4-6.9-4.3-9.7c-2.8-2.8-6.1-4.2-9.9-4.2c-4,0-7.4,1.6-10.2,4.7h-54.1v-34.8
			h41.1c2.9,3.9,6.4,5.8,10.4,5.8c3.8,0,7.1-1.3,9.9-4c2.9-2.7,4.3-6,4.3-9.9c0-3.7-1.4-6.9-4.3-9.7c-2.8-2.8-6.2-4.2-9.9-4.2
			c-4,0-7.4,1.6-10.2,4.7h-41.3V62.6h53.9c2.9,3.9,6.3,5.8,10.4,5.8c3.7,0,7-1.4,9.9-4.2c2.9-2.8,4.3-6.2,4.3-10.3
			c0-3.8-1.4-7.2-4.3-10.1c-2.8-2.9-6.1-4.4-9.9-4.4c-4,0-7.4,1.9-10.2,5.8h-73.7v119.7H353.3z"/>
		<path fill-rule="evenodd" clip-rule="evenodd" fill="#FFFFFF" d="M471.8,53.2c0.2-0.7,0.8-1.5,1.6-2.2c0.9-0.8,2-1.2,3.4-1.2
			c1.4,0,2.7,0.5,3.7,1.6c1.1,1.1,1.6,2.2,1.6,3.6c0,1.6-0.5,2.8-1.6,3.8c-1.1,1-2.3,1.5-3.7,1.5c-1.5,0-2.6-0.4-3.4-1.1
			c-0.8-0.7-1.4-1.5-1.6-2.4h-31.2v95.2c0.4,0.3,1,0.8,2,1.6c1,0.9,1.5,2,1.5,3.4c0,1.5-0.5,2.7-1.6,3.8s-2.2,1.6-3.6,1.6
			c-1.5,0-2.7-0.6-3.7-1.6c-1-1.1-1.5-2.3-1.5-3.8c0-1.5,0.3-2.6,0.8-3.4c0.6-0.8,1.1-1.4,1.5-1.6V56.7h-31.3
			c-0.3,1-0.8,1.8-1.6,2.4c-0.9,0.7-1.9,1.1-3.2,1.1c-1.5,0-2.7-0.5-3.8-1.5c-1.1-1-1.6-2.2-1.6-3.8c0-1.4,0.5-2.6,1.6-3.6
			c1.1-1.1,2.3-1.6,3.8-1.6c1.3,0,2.4,0.4,3.2,1.2c0.8,0.8,1.4,1.6,1.6,2.2H471.8z M427.9,63.6v83.6c-2.3,2.9-3.5,6.3-3.5,10.2
			c0,3.9,1.4,7.3,4.2,10.1c2.8,2.8,6.2,4.2,10.2,4.2c3.8,0,7.2-1.4,10.1-4.2c2.9-2.8,4.3-6.1,4.3-10.1c0-3.9-1.6-7.2-4.6-10V63.6
			h18.7c2.8,3.9,6.2,5.8,10.1,5.8c3.7,0,6.9-1.4,9.7-4.2c2.8-2.8,4.2-6.2,4.2-10.3c0-3.8-1.4-7.2-4.2-10.1c-2.8-2.9-6.1-4.4-9.9-4.4
			c-4,0-7.3,1.9-10.1,5.8h-57.8c-2.8-3.9-6.1-5.8-10-5.8s-7.2,1.5-9.9,4.4s-4.6,6.3-4.6,10.1c0,4.1,1.8,7.6,4.6,10.3
			c2.7,2.8,6,4.2,9.8,4.2c3.8,0,7.2-1.9,10-5.8H427.9z"/>
		<path fill-rule="evenodd" clip-rule="evenodd" fill="#FFFFFF" d="M513.2,155.4h57.6c0.2-0.5,0.8-1,1.6-1.5c0.8-0.6,2-0.8,3.4-0.8
			c1.5,0,2.7,0.5,3.8,1.4c1.1,0.9,1.6,2,1.6,3.2c0,1.4-0.5,2.5-1.6,3.3c-1.1,0.9-2.3,1.3-3.7,1.3c-1.5,0-2.6-0.3-3.4-1
			c-0.8-0.7-1.4-1.5-1.6-2.5h-61.2V60.4c-0.6-0.2-1.4-0.8-2.2-1.6c-0.8-0.8-1.2-2-1.2-3.6c0-1.5,0.5-2.7,1.5-3.8
			c1-1.1,2.2-1.6,3.7-1.6c1.4,0,2.6,0.5,3.6,1.6c1,1.1,1.6,2.4,1.6,3.8c0,1.6-0.5,2.8-1.5,3.6c-1,0.9-1.6,1.4-2,1.6V155.4z
			 M501.7,64.9v101h64.4c2.9,3.9,6.3,5.8,10.3,5.8c3.7,0,7-1.3,9.8-4c2.8-2.7,4.3-6,4.3-9.9c0-3.7-1.4-6.9-4.2-9.7
			c-2.8-2.8-6.1-4.2-9.8-4.2c-4,0-7.3,1.6-10.1,4.7h-45V64.9c3.1-2.8,4.6-6.2,4.6-10.2c0-3.8-1.5-7.1-4.4-9.9
			c-2.9-2.9-6.2-4.3-10.1-4.3c-4.1,0-7.5,1.5-10.3,4.3c-2.8,2.8-4.2,6.1-4.2,9.9C497.1,58.6,498.6,62,501.7,64.9z"/>
		<path fill-rule="evenodd" clip-rule="evenodd" fill="#FFFFFF" d="M605.6,53.2h70.3c0.2-0.8,0.8-1.5,1.6-2.3c0.9-0.8,2-1.2,3.4-1.2
			c1.4,0,2.7,0.5,3.8,1.6c1.1,1.1,1.6,2.2,1.6,3.6c0,1.6-0.6,2.8-1.6,3.8c-1.1,1-2.3,1.5-3.8,1.5s-2.6-0.4-3.5-1.1
			c-0.9-0.7-1.4-1.5-1.6-2.4H609v46.5h54c0.2-0.5,0.8-1,1.6-1.5c0.8-0.5,2-0.8,3.4-0.8c1.5,0,2.7,0.5,3.9,1.4c1.1,0.9,1.6,2,1.6,3.2
			c0,1.4-0.5,2.5-1.6,3.4c-1.1,0.9-2.4,1.3-3.9,1.3c-1.5,0-2.6-0.3-3.4-1c-0.9-0.7-1.4-1.5-1.6-2.4h-54v48.8h66.7
			c0.2-0.5,0.8-1,1.6-1.5c0.9-0.6,2-0.8,3.5-0.8s2.7,0.5,3.8,1.4c1.1,0.9,1.6,2,1.6,3.2c0,1.4-0.5,2.5-1.6,3.3
			c-1.1,0.9-2.3,1.3-3.8,1.3c-1.5,0-2.6-0.3-3.4-1c-0.8-0.7-1.4-1.5-1.6-2.5h-70.3V53.2z M671,165.9c2.9,3.9,6.3,5.8,10.3,5.8
			c3.8,0,7.1-1.3,9.9-4c2.8-2.7,4.3-6,4.3-9.9c0-3.7-1.4-6.9-4.3-9.7c-2.8-2.8-6.1-4.2-9.9-4.2c-4,0-7.4,1.6-10.2,4.7h-54.1v-34.8
			h41.1c2.9,3.9,6.4,5.8,10.4,5.8c3.8,0,7.1-1.3,9.9-4c2.8-2.7,4.3-6,4.3-9.9c0-3.7-1.5-6.9-4.3-9.7c-2.9-2.8-6.2-4.2-9.9-4.2
			c-4.1,0-7.5,1.6-10.3,4.7h-41.2V63.6H671c2.9,3.9,6.3,5.8,10.3,5.8c3.8,0,7.1-1.4,9.9-4.2c2.8-2.8,4.3-6.2,4.3-10.3
			c0-3.8-1.4-7.2-4.3-10.1c-2.8-2.9-6.1-4.4-9.9-4.4c-4,0-7.4,1.9-10.2,4.8h-73.6v120.7H671z"/>
	</g>
</g>
</svg>
